<svg width="48" height="71" viewBox="0 0 48 71" fill="none" xmlns="http://www.w3.org/2000/svg">
<path d="M23.6592 35.6927L23.1908 35.9568H24.7026L23.6592 35.6927Z" fill="black"/>
<path d="M29.6832 1C30.7653 1 32.9294 1.2597 32.9294 2.29848C32.9294 2.98777 32.9294 7.52671 32.9294 11.8939M32.9294 11.8939C32.9294 14.1082 32.9294 16.2784 32.9294 17.8803V11.8939ZM32.9294 11.8939H34.9941L34.8771 18.5295M25.7878 1H27.0863M23.1908 1H14.1014C13.885 1 13.4522 1.2597 13.4522 2.29848C13.4522 2.97628 13.4522 7.37641 13.4522 11.6753M13.4522 11.6753C13.4522 13.9649 13.4522 15.5765 13.4522 17.231L13.4522 11.6753ZM10.6008 11.6753H10.973H11.159M13.2985 11.6753H11.159M11.159 11.6753V18.931M23.1908 19.828C23.1908 23.4637 23.1908 24.3727 23.1908 24.3727M30.9817 22.425L29.034 25.6712M15.3999 22.425L17.3477 25.6712M12.803 30.2158L8.90753 27.6189M11.159 35.9568H6.80256M34.8772 36.059H38.7726H34.2279M14.1015 30.8651L23.1908 35.9568M23.1908 35.9568L36.8249 28.2681M23.1908 35.9568H21.2431H24.7026L22.5416 35.4098L23.8401 33.4621M3.06436 29.5666C2.63153 30.4323 1.76587 33.0725 1.76587 36.7083M5.01208 25.6712L4.36284 26.9696M6.31056 23.0742C8.25828 20.2608 14.3612 14.7639 23.1908 15.2833C29.034 15.0669 41.3696 18.3997 43.9665 33.4621M43.9665 33.4621V36.7083M43.9665 33.4621C44.6158 33.4621 46.0441 33.5919 46.5635 34.1113C46.5635 34.5441 46.5635 35.6695 46.5635 36.7083M5.66132 36.7083C5.44491 32.5964 7.34935 23.4637 16.6984 19.828C28.3848 15.2833 35.5264 24.3727 36.1757 25.0219C37.4741 26.5368 40.0711 30.9949 40.0711 36.7083M34.8772 52.9393V59.4317C34.8772 59.6481 34.6175 60.0809 33.5787 60.0809C33.258 60.0809 33.0116 60.0809 32.8241 60.0809M32.8241 60.0809C32.4043 60.0809 32.2802 60.0809 32.2802 60.0809H32.8241ZM32.8241 60.0809V54.425M32.8241 60.0809V69.8196C32.8592 70.036 32.6698 70.4688 31.631 70.4688C30.5922 70.4688 19.5118 70.4688 14.1015 70.4688C13.5821 70.4688 13.4522 70.036 13.4522 69.8196V54.887V60.0809H11.5045" stroke="black"/>
<path d="M34.8773 53.5885C33.146 54.6706 28.3849 56.8347 23.1909 56.8347C16.9582 56.8347 12.8031 54.6706 11.5046 53.5885H11.18M10.8554 53.5885H11.18M11.18 53.5885V54.5432M12.1538 60.0809C11.6344 60.0809 11.2882 59.6481 11.18 59.4317V54.5432M27.7356 52.29C26.2207 53.1557 22.1521 54.3676 17.997 52.29M11.18 54.5432V53.2962V53.0695V52.9393" stroke="black"/>
<path d="M2.72681 47.2456C3.06009 47.2456 3.3661 47.2002 3.64484 47.1093C3.92358 47.0123 4.16596 46.8699 4.37199 46.6821C4.58407 46.4882 4.75374 46.2427 4.88099 45.9458C5.00825 45.6489 5.08702 45.2944 5.11732 44.8824H1.69062V44.2007H5.11732C5.08702 43.8007 5.00825 43.4553 4.88099 43.1645C4.75374 42.8736 4.5871 42.6343 4.38108 42.4464C4.18111 42.2525 3.94782 42.1101 3.6812 42.0192C3.41458 41.9283 3.12674 41.8829 2.81771 41.8829C2.40565 41.8829 2.00875 41.9556 1.627 42.101C1.2513 42.2404 0.890759 42.4707 0.545362 42.7918L0.0908937 42.2465C0.43629 41.9253 0.854401 41.6708 1.34523 41.4829C1.83605 41.2951 2.35718 41.2012 2.9086 41.2012C3.45396 41.2012 3.94782 41.2739 4.39017 41.4193C4.83858 41.5647 5.22033 41.7799 5.53543 42.0647C5.85659 42.3495 6.10503 42.7009 6.28076 43.119C6.45649 43.5371 6.54435 44.0189 6.54435 44.5642C6.54435 45.1096 6.45649 45.5913 6.28076 46.0095C6.10503 46.4276 5.85356 46.779 5.52634 47.0638C5.20518 47.3486 4.81434 47.5637 4.35381 47.7092C3.89934 47.8546 3.38731 47.9273 2.81771 47.9273C2.26628 47.9273 1.74516 47.8334 1.25433 47.6455C0.763507 47.4577 0.345396 47.2032 0 46.882L0.454469 46.3367C0.799865 46.6578 1.16041 46.8911 1.5361 47.0366C1.91786 47.1759 2.31476 47.2456 2.72681 47.2456Z" fill="black"/>
<path d="M6.72827 47.2002H7.00095C7.18274 47.2002 7.34331 47.1244 7.48269 46.9729C7.62206 46.8214 7.70386 46.5639 7.7281 46.2003L8.04623 41.383H13.4544V47.7455H12.1364V42.0647H9.27329L9.00061 46.2003C8.95819 46.7942 8.79156 47.2244 8.5007 47.491C8.2159 47.7516 7.82202 47.8819 7.31908 47.8819C7.16153 47.8819 7.02216 47.8667 6.90097 47.8364C6.83431 47.8243 6.77674 47.8091 6.72827 47.791V47.2002Z" fill="black"/>
<path d="M16.0456 42.0647V44.1552H19.3632V44.8369H16.0456V47.0638H20.2721V47.7455H14.7276V41.383H20.2721V42.0647H16.0456Z" fill="black"/>
<path d="M22.4987 42.0647V47.7455H21.1807V41.383H26.4526V42.0647H22.4987Z" fill="black"/>
<path d="M27.7709 45.5186H30.5886L29.2252 42.1556H29.1343L27.7709 45.5186ZM30.225 41.383L32.8155 47.7455H31.5066L30.9067 46.2003H27.4528L26.8529 47.7455H25.544L28.1345 41.383H30.225Z" fill="black"/>
<path d="M39.908 41.383V47.7455H38.5901V44.9733H34.8634V47.7455H33.5455V41.383H34.8634V44.2916H38.5901V41.383H39.908Z" fill="black"/>
<path d="M46.86 42.0647H44.4059V47.7455H43.0879V42.0647H40.6338V41.383H46.86V42.0647Z" fill="black"/>
</svg>
